<svg width="1024" height="1024" viewBox="0 0 1024 1024" xmlns="http://www.w3.org/2000/svg">
  <defs>
    <filter id="sh" x="-20%" y="-20%" width="140%" height="140%">
      <feDropShadow dx="0" dy="14" stdDeviation="22" flood-color="#000000" flood-opacity="0.16"/>
    </filter>
  </defs>

  <!-- page -->
  <g filter="url(#sh)">
    <path d="M212,64 H700 L864,228 V916 a28,28 0 0 1 -28,28 H212 a28,28 0 0 1 -28,-28 V92 a28,28 0 0 1 28,-28 Z" fill="#ECE9E1"/>
  </g>
  <!-- folded corner -->
  <path d="M700,64 V228 H864 Z" fill="#D9D4C7"/>

  <!-- braces + colon -->
  <g stroke="#CE6A34" stroke-width="26" stroke-linecap="round" stroke-linejoin="round" fill="none">
    <path d="M446,250 C412,250 410,300 410,336 C410,378 402,395 360,395 C402,395 410,412 410,454 C410,490 412,540 446,540"/>
    <path d="M578,250 C612,250 614,300 614,336 C614,378 622,395 664,395 C622,395 614,412 614,454 C614,490 612,540 578,540"/>
  </g>
  <g fill="#CE6A34">
    <circle cx="512" cy="352" r="20"/>
    <circle cx="512" cy="446" r="20"/>
  </g>

  <!-- bottom band -->
  <path d="M184,720 H864 V916 a28,28 0 0 1 -28,28 H212 a28,28 0 0 1 -28,-28 Z" fill="#CE6A34"/>
  <text x="524" y="892" text-anchor="middle" font-family="Arial, Helvetica, sans-serif" font-weight="800" font-size="168" fill="#ffffff">JSON</text>
</svg>
